# xmcd
#
# Track frame offsets:
#	150
#	10423
#	23874
#	38595
#	51281
#	64567
#	76046
#	87515
#	97480
#	111329
#	121670
#	130553
#	141949
#	152831
#	166601
#	178819
#	189854
#	202501
#	213891
#	225270
#	235933
#	247167
#	259316
#	271476
#
# Disc length: 3751 seconds
#
# Revision: 0
# Processed by: cddbd v1.5.2PL0 Copyright (c) Steve Scherf et al.
# Submitted via: audiograbber 1.83.01
#
DISCID=3c0ea518
DTITLE=Various Artist - The Forgotten Oldies Volume 3
DYEAR=1900
DGENRE=
TTITLE0=Night Raiders - Hidi Hidi Hidi
TTITLE1=5 Royales - Woman About To Make Me Go Crazy
TTITLE2=Joe Weaver With The Don Juans - Looka Here Pretty Baby
TTITLE3=Pete Peters And His Rhythm Makers - Wig Walk
TTITLE4=Hollywood Flames - There Is Something On Your Mind
TTITLE5=Sharps - Here's My Heart
TTITLE6=Originals - At Times Like This
TTITLE7=Demensions - A Tear Fell
TTITLE8=The Mighty Hannibal - Jerkin The Dog
TTITLE9=Jimmy Witherspoon and The Quintones - My Girl Ivy
TTITLE10=Strangers - The Caterpillar Crawl
TTITLE11=Plookie McCline - Uncle Willy
TTITLE12=Hal Davis - Merchant Of Love
TTITLE13=Four Havens - What Time Is It
TTITLE14=Tops - An Innocent Kiss
TTITLE15=Drakes - I Made A Wish
TTITLE16=Spinners - Richard Pry Private Eye
TTITLE17=Tabs - Dance Party
TTITLE18=Orginals Feat Tony Allen - Let Me Hear You Say Yeah
TTITLE19=Bobby Marchan - I've Got A Thing Going On
TTITLE20=Shells - Baby Walk On In
TTITLE21=Del Chords - Everybody's Gotta Lose Someday
TTITLE22=Little Billy And The Bluenotes - I Love An Angel
TTITLE23=Little Billy And The Essentials - The Dance Is Over
EXTD=
EXTT0=
EXTT1=
EXTT2=
EXTT3=
EXTT4=
EXTT5=
EXTT6=
EXTT7=
EXTT8=
EXTT9=
EXTT10=
EXTT11=
EXTT12=
EXTT13=
EXTT14=
EXTT15=
EXTT16=
EXTT17=
EXTT18=
EXTT19=
EXTT20=
EXTT21=
EXTT22=
EXTT23=
PLAYORDER=
